Format : MPEG-4
Format profile : Base Media / Version 2
Codec ID : mp42
File size : 412 MiB
Duration : 1h 40mn
Overall bit rate : 575 Kbps
Encoded date : UTC 2010-11-13 21:43:50
Tagged date : UTC 2010-11-13 21:44:07
Writing application : mp4creator 1.6.1d

Video
ID : 1
Format : AVC
Format/Info : Advanced Video Codec
Format profile : Baseline@L1.3
Format settings, CABAC : No
Format settings, ReFrames : 1 frame
Codec ID : avc1
Codec ID/Info : Advanced Video Coding
Duration : 1h 40mn
Bit rate mode : Variable
Bit rate : 510 Kbps
Width : 480 pixels
Height : 272 pixels
Display aspect ratio : 16:9
Original display aspect ratio : 16:9
Frame rate mode : Constant
Frame rate : 24.000 fps
Resolution : 24 bits
Colorimetry : 4:2:0
Scan type : Progressive
Bits/(Pixel*Frame) : 0.163
Stream size : 365 MiB (89%)
Encoded date : UTC 2010-11-13 21:43:50
Tagged date : UTC 2010-11-13 21:44:06

Audio
ID : 2
Format : AAC
Format/Info : Advanced Audio Codec
Format version : Version 4
Format profile : LC
Format settings, SBR : Yes
Format settings, PS : No
Codec ID : 40
Duration : 1h 40mn
Bit rate mode : Variable
Bit rate : 63.7 Kbps
Maximum bit rate : 110 Kbps
Channel(s) : 2 channels
Channel positions : L R
Sampling rate : 48.0 KHz
Resolution : 16 bits
Stream size : 45.6 MiB (11%)
Encoded date : UTC 2010-11-13 21:44:06
Tagged date : UTC 2010-11-13 21:44:07

STARRING:
Paul Wight (a.k.a. The Big Show),
Mark Feuerstein,
Melora Hardin,
Dennis Farina,
Will Patton

Knucklehead stars Wight as Walter Krunk, a 35-year-old man who lives in a Catholic orphanage because he was never adopted. He does general chores like cooking and cleaning. But when he accidentally burns the kitchen to shambles, the orphanage has 10 days to come up with the funds to repair it, or the orphanage closes. Enter Eddie Sullivan, a fast talking MMA promoter who trains Walter to fight in a tournament held in New Orleans. Big shock: The winner gets a butt-load of prize money. Thus, the timid, soft-hearted Walter has to win the tournament to save the orphanage.
 
http://www.imdb.com/title/tt1524131/

screens
 
http://img801.imageshack.us/img801/793/knuckleheadh264vicemp4s.jpg 
http://img844.imageshack.us/img844/793/knuckleheadh264vicemp4s.jpg 
http://img41.imageshack.us/img41/793/knuckleheadh264vicemp4s.jpg 
http://img17.imageshack.us/img17/793/knuckleheadh264vicemp4s.jpg